<?xml version="1.0" encoding="iso-8859-1"?>
<!-- Generator: Adobe Illustrator 19.0.0, SVG Export Plug-In . SVG Version: 6.00 Build 0)  -->
<svg version="1.1" id="Capa_1" xmlns="http://www.w3.org/2000/svg" xmlns:xlink="http://www.w3.org/1999/xlink" x="0px" y="0px"
	 viewBox="0 0 470 470" style="enable-background:new 0 0 470 470;" xml:space="preserve">
<g>
	<path d="M399.95,291.184c-9.489-9.489-26.906-15.864-43.342-15.864c-1.338,0-2.667,0.043-3.978,0.127l-69.878-69.878h19.103
		c11.53,13.104,29.708,22.333,44.584,22.333c16.45,0,29.834-13.383,29.834-29.833s-13.384-29.833-29.834-29.833
		c-14.876,0-33.055,9.23-44.584,22.333h-34.103L242.5,165.318v-51.742h5.58c8.911,6.536,40.074,27.961,65.617,27.961
		c2.55,0,5.045-0.214,7.454-0.677c24.583-4.726,35.762-29.419,35.745-50.351c0.017-20.944-11.162-45.637-35.745-50.363
		c-26.548-5.104-63.278,20.103-73.07,27.284h-5.581V7.5c0-4.142-3.357-7.5-7.5-7.5s-7.5,3.358-7.5,7.5v59.931h-5.579
		c-9.792-7.182-46.518-32.388-73.07-27.284c-24.583,4.726-35.762,29.419-35.745,50.351c-0.017,20.943,11.162,45.637,35.745,50.363
		c2.411,0.463,4.902,0.677,7.454,0.677c25.542,0,56.706-21.425,65.617-27.961h5.58v19.455l-59.735,59.735
		c-2.929,2.929-2.929,7.677,0,10.606c1.465,1.465,3.385,2.197,5.304,2.197s3.839-0.732,5.304-2.197l49.128-49.128v14.175
		c0,0.01,0,61.637,0,61.637l-25.252,25.252h-34.103c-11.53-13.104-29.708-22.333-44.584-22.333
		c-16.45,0-29.834,13.383-29.834,29.833s13.384,29.833,29.834,29.833c14.876,0,33.055-9.23,44.584-22.333h19.103l-69.878,69.878
		c-1.312-0.084-2.64-0.127-3.978-0.127c-16.436,0-33.854,6.375-43.342,15.863c-5.635,5.635-8.737,13.127-8.738,21.095
		c0,7.969,3.104,15.461,8.738,21.096c5.635,5.634,13.126,8.738,21.098,8.738c7.968,0,15.459-3.103,21.094-8.738
		c10.518-10.519,16.846-29.899,15.733-47.318l39.363-39.363v19.103c-13.104,11.53-22.334,29.709-22.334,44.585
		c0,16.45,13.384,29.833,29.834,29.833s29.833-13.383,29.833-29.833c0-14.876-9.23-33.056-22.333-44.585v-34.103L227.5,251.27
		v84.228c0,0.017,0,0.034,0,0.051v60.033c-13.104,11.529-22.333,29.708-22.333,44.584C205.167,456.616,218.55,470,235,470
		c16.45,0,29.833-13.384,29.833-29.834c0-14.876-9.229-33.055-22.333-44.584v-41.95l49.126,49.126
		c1.465,1.465,3.385,2.197,5.304,2.197s3.839-0.732,5.304-2.197c2.929-2.929,2.929-7.677,0-10.606L242.5,332.418v-99.25
		c0-0.01,0-46.637,0-46.637l45.163,45.163v34.104c-13.104,11.529-22.333,29.708-22.333,44.584c0,16.45,13.383,29.833,29.833,29.833
		s29.834-13.383,29.834-29.833c0-14.876-9.229-33.055-22.334-44.584v-19.104l39.363,39.363
		c-1.114,17.419,5.215,36.799,15.733,47.318c5.635,5.635,13.127,8.738,21.096,8.738s15.461-3.104,21.095-8.738
		c5.636-5.635,8.739-13.127,8.739-21.096C408.688,304.311,405.585,296.819,399.95,291.184z M361.273,198.07
		c0,8.179-6.654,14.833-14.834,14.833c-8.596,0-21.653-5.46-31.072-14.833c9.419-9.374,22.477-14.833,31.072-14.833
		C354.619,183.236,361.273,189.891,361.273,198.07z M226.928,98.576V82.431h16.145v16.145H226.928z M258.072,102.29V78.717
		c13.148-9.429,42.586-27.233,60.246-23.839c16.217,3.117,23.589,20.65,23.577,35.633c0.012,14.97-7.36,32.503-23.577,35.62
		C300.665,129.527,271.222,111.72,258.072,102.29z M211.928,78.717v23.574c-13.15,9.429-42.594,27.232-60.246,23.84
		c-16.217-3.117-23.589-20.65-23.577-35.632c-0.012-14.971,7.36-32.503,23.577-35.62C169.336,51.482,198.782,69.289,211.928,78.717z
		 M108.727,262.809c0-8.179,6.654-14.833,14.834-14.833c8.596,0,21.653,5.46,31.072,14.833
		c-9.419,9.374-22.477,14.833-31.072,14.833C115.381,277.642,108.727,270.988,108.727,262.809z M174.837,389.955
		c-8.18,0-14.834-6.654-14.834-14.833c0-8.595,5.46-21.653,14.834-31.073c9.373,9.42,14.833,22.477,14.833,31.073
		C189.67,383.301,183.016,389.955,174.837,389.955z M91.146,391.852c-3.963,0-7.688-1.543-10.49-4.345s-4.345-6.527-4.345-10.489
		c0-3.962,1.544-7.687,4.346-10.489c6.596-6.596,20.208-11.398,32.459-11.469c-0.036,13.284-5.406,26.371-11.482,32.447
		C98.832,390.309,95.108,391.852,91.146,391.852z M235,455c-8.179,0-14.833-6.655-14.833-14.834c0-8.596,5.46-21.653,14.833-31.073
		c9.373,9.419,14.833,22.477,14.833,31.073C249.833,448.345,243.179,455,235,455z M295.163,325.216
		c-8.179,0-14.833-6.654-14.833-14.833c0-8.596,5.46-21.653,14.833-31.073c9.374,9.42,14.834,22.477,14.834,31.073
		C309.997,318.562,303.343,325.216,295.163,325.216z M368.366,322.768c-6.076-6.076-11.446-19.163-11.482-32.447
		c12.251,0.071,25.862,4.873,32.459,11.469c2.802,2.802,4.346,6.527,4.346,10.489s-1.543,7.687-4.346,10.489
		c-2.801,2.802-6.526,4.345-10.488,4.344C374.893,327.113,371.167,325.57,368.366,322.768z"/>
</g>
<g>
</g>
<g>
</g>
<g>
</g>
<g>
</g>
<g>
</g>
<g>
</g>
<g>
</g>
<g>
</g>
<g>
</g>
<g>
</g>
<g>
</g>
<g>
</g>
<g>
</g>
<g>
</g>
<g>
</g>
</svg>
