<?xml version="1.0" encoding="iso-8859-1"?>
<!-- Generator: Adobe Illustrator 16.0.0, SVG Export Plug-In . SVG Version: 6.00 Build 0)  -->
<!DOCTYPE svg PUBLIC "-//W3C//DTD SVG 1.1//EN" "http://www.w3.org/Graphics/SVG/1.1/DTD/svg11.dtd">
<svg version="1.1" id="Capa_1" xmlns="http://www.w3.org/2000/svg" xmlns:xlink="http://www.w3.org/1999/xlink" x="0px" y="0px"
	 width="193.276px" height="193.276px" viewBox="0 0 193.276 193.276" style="enable-background:new 0 0 193.276 193.276;"
	 xml:space="preserve">
<g>
	<g>
		<path d="M0.336,160.75c0.377,0.675,1.226,1.107,2.004,1.107c1.3,0,5.236-0.242,9.136-2.789c0.422,1.013,0.913,1.903,1.371,2.731
			c1.129,2.051,1.875,3.401,1.216,5.9c-0.206,0.771,0.032,1.593,0.617,2.137c0.403,0.374,0.933,0.574,1.469,0.574
			c0.237,0,0.475-0.047,0.706-0.121c0.232-0.074,5.74-2.035,8.214-7.141c0.907-1.866,1.284-3.892,1.144-6.043
			c1.382,0.358,2.813,0.538,4.298,0.538c2.874,0,4.86-0.686,5.076-0.771c0.72-0.264,1.237-0.875,1.39-1.624
			c0.145-0.754-0.113-1.508-0.68-2.024c-4.862-4.341-5.266-6.972-5.616-9.309c-0.134-0.906-0.282-1.745-0.556-2.552
			c-1.746-5.147-4.979-7.757-9.608-7.757c-1.247,0-2.418,0.189-3.51,0.379c-2.333-11.411-0.171-23.065,6.141-32.885
			c6.415-9.97,16.324-16.844,27.907-19.349c9.152-1.988,18.539-0.292,26.417,4.778c1.181,0.762,2.289,1.603,3.359,2.483
			c-4.554-1.635-9.505-2.009-14.386-0.949c-8.253,1.793-15.338,6.603-19.944,13.542c-2.953,4.462-4.649,9.45-5.042,14.587
			c-1.833,0.886-6.439,3.544-7.151,8.152c-0.567,3.66,1.426,7.394,5.93,11.106l0.419,0.337c1.812,1.477,5.168,4.219,6.708,8.364
			c0.303,0.822,1.076,1.381,1.948,1.413c0.024,0,0.05,0,0.077,0c0.849,0,1.619-0.496,1.967-1.271
			c0.733-1.629,7.014-16.147,1.927-23.936c-1.601-2.447-4.1-3.85-7.362-4.335c0.406-4.229,1.729-8.354,4.174-12.034
			c3.981-6.006,10.109-10.164,17.26-11.715c5.611-1.221,11.34-0.242,16.128,2.75c4.225,2.634,7.183,6.587,8.651,11.212
			c0.222,0.77,0.454,1.539,0.627,2.341c0.005,0.021,0.016,0.032,0.021,0.053c1.517,8.532-4.163,16.896-12.965,18.806
			c-6.99,1.497-13.84-2.753-15.306-9.503c-1.121-5.168,2.312-10.315,7.659-11.485c1.166-0.254,1.912-1.403,1.651-2.579
			c-0.253-1.171-1.418-1.914-2.571-1.646c-7.673,1.666-12.593,9.118-10.961,16.622c1.701,7.842,8.791,13.199,16.696,13.199
			c1.237,0,2.489-0.121,3.75-0.4c5.616-1.224,10.233-4.546,13.165-8.929l0.161,9.746c0.016,1.176,0.983,2.125,2.154,2.125
			c0.011,0,0.029,0,0.04,0c1.192-0.021,2.144-1.018,2.128-2.193l-0.163-9.63c3.09,4.229,7.757,7.352,13.362,8.374
			c1.065,0.19,2.142,0.296,3.201,0.296c3.443,0,6.792-1.013,9.666-2.942c3.792-2.548,6.323-6.392,7.135-10.821
			c1.377-7.547-3.786-14.84-11.512-16.253c-1.171-0.211-2.299,0.564-2.516,1.729c-0.216,1.165,0.56,2.3,1.73,2.521
			c5.379,0.992,8.985,6.022,8.036,11.223c-0.591,3.279-2.479,6.138-5.289,8.016c-2.826,1.908-6.275,2.6-9.682,1.982
			c-8.876-1.613-14.829-9.787-13.593-18.373c0.005-0.01,0.016-0.021,0.021-0.042c0.145-0.812,0.355-1.593,0.562-2.373
			c1.312-4.651,4.14-8.698,8.264-11.475c4.688-3.148,10.389-4.309,16.031-3.283c7.192,1.313,13.457,5.266,17.645,11.135
			c2.568,3.607,4.023,7.679,4.577,11.887c-3.254,0.585-5.706,2.088-7.219,4.577c-4.825,7.947,1.935,22.254,2.726,23.857
			c0.359,0.743,1.118,1.207,1.936,1.207c0.048,0,0.101,0,0.138,0c0.875-0.068,1.635-0.643,1.908-1.466
			c1.397-4.187,4.651-7.045,6.413-8.574l0.422-0.369c4.382-3.86,6.249-7.657,5.558-11.296c-0.859-4.588-5.547-7.088-7.414-7.91
			c-0.559-5.115-2.421-10.051-5.521-14.407c-4.841-6.781-12.07-11.361-20.376-12.88c-4.884-0.902-9.799-0.367-14.286,1.405
			c7.783-6.848,18.499-10.228,29.457-8.229c11.66,2.128,21.796,8.667,28.535,18.418c6.639,9.607,9.181,21.199,7.225,32.685
			c-0.997-0.138-2.01-0.301-3.064-0.301c-4.878,0-8.179,2.721-9.792,8.068c-0.254,0.817-0.359,1.672-0.47,2.579
			c-0.279,2.341-0.585,4.988-5.305,9.492c-0.554,0.527-0.786,1.297-0.606,2.035c0.163,0.749,0.717,1.34,1.444,1.582
			c0.316,0.105,5.416,1.076,9.382-0.084c-0.079,2.156,0.369,4.16,1.345,6.006c2.631,5.016,8.205,6.781,8.438,6.861
			c0.211,0.073,0.427,0.105,0.638,0.105c0.56,0,1.113-0.222,1.519-0.633c0.564-0.56,0.781-1.393,0.554-2.152
			c-0.748-2.468-0.042-3.839,1.013-5.927c0.433-0.833,0.892-1.74,1.276-2.774c4.725,2.869,9.582,2.469,9.582,2.458
			c0.754-0.074,1.424-0.538,1.745-1.213c0.327-0.686,0.285-1.487-0.126-2.126c-3.576-5.441-3.28-8.1-3.032-10.436
			c0.105-0.918,0.185-1.756,0.121-2.61c-0.591-8.854-6.466-10.094-10.368-10.468c2.067-12.52-0.732-25.123-7.968-35.593
			c-7.398-10.703-18.515-17.885-31.313-20.219c-17.835-3.267-35.058,6.128-42.549,21.734l-0.147-8.812
			c3.074-2.07,17.12-12.33,16.593-26.855c-0.174-4.675-3.296-8.846-6.049-12.521c-2.368-3.169-4.614-6.162-4.267-8.424
			c0.307-1.917,1.698-2.571,3.966-3.473c1.925-0.767,4.572-1.809,4.456-4.762c-0.205-5.734-7.768-10.056-17.592-10.056l-1.227,0.021
			c-10.33,0.385-18.249,5.384-18.032,11.38c0.113,2.959,2.813,3.813,4.796,4.433c2.334,0.73,3.776,1.273,4.216,3.159
			c0.514,2.235-1.5,5.384-3.639,8.722c-2.479,3.866-5.287,8.25-5.113,12.934c0.491,13.392,13.068,22.251,17.556,24.996l0.155,9.497
			c-3.122-6.096-7.771-11.306-13.685-15.113c-8.854-5.693-19.38-7.6-29.671-5.369C37.429,80.28,26.558,87.824,19.518,98.771
			c-6.882,10.689-9.257,23.394-6.779,35.839c-3.881,0.517-9.708,1.951-10.011,10.811c-0.026,0.844,0.087,1.688,0.211,2.604
			c0.334,2.325,0.72,4.968-2.674,10.521C-0.149,159.221-0.041,160.064,0.336,160.75z M49.671,122.729
			c2.371,3.628,0.97,10.558-0.627,15.493c-1.954-2.758-4.337-4.693-6.06-6.096c-2.225-1.84-4.801-4.551-4.406-7.088
			c0.237-1.582,1.598-2.895,2.932-3.839c0.113,1.239,0.274,2.489,0.546,3.733c0.258,1.16,1.408,1.889,2.576,1.656
			c1.165-0.253,1.906-1.402,1.65-2.578c-0.264-1.224-0.335-2.442-0.414-3.671C47.564,120.693,48.854,121.5,49.671,122.729z
			 M147.512,124.875c1.171,0.211,2.305-0.564,2.521-1.735c0.227-1.255,0.343-2.515,0.416-3.765c1.366,0.907,2.764,2.167,3.048,3.739
			c0.475,2.525-2.004,5.326-4.176,7.24l-0.401,0.354c-1.402,1.229-3.612,3.164-5.452,5.942c-1.751-4.883-3.386-11.754-1.134-15.462
			c0.774-1.26,2.024-2.066,3.728-2.479c-0.047,1.219-0.068,2.426-0.29,3.655C145.561,123.536,146.342,124.664,147.512,124.875z
			 M185.697,142.615c0.037,0.596-0.042,1.202-0.116,1.846c-0.242,2.178-0.559,5.01,1.529,9.45c-1.608-0.454-3.507-1.318-5.236-2.933
			c-0.596-0.559-1.461-0.743-2.215-0.453c-0.771,0.284-1.308,0.97-1.413,1.771c-0.228,1.909-0.939,3.296-1.683,4.768
			c-0.723,1.424-1.492,2.942-1.725,4.841c-2.299-1.666-4.714-4.757-3.053-10.062c0.264-0.854-0.026-1.782-0.729-2.342
			c-0.39-0.316-0.864-0.464-1.334-0.464c-0.385,0-0.775,0.105-1.112,0.306c-1.809,1.087-3.808,1.688-5.954,1.782
			c3.038-3.859,3.375-6.676,3.634-8.869c0.084-0.644,0.137-1.245,0.316-1.825c1.993-6.592,5.832-5.126,8.78-4.693l2.811,0.316
			C182.011,136.351,185.291,136.63,185.697,142.615z M80.099,63.355c-0.119-3.325,2.194-6.945,4.432-10.444
			c2.637-4.118,5.131-8.013,4.208-12.026c-1.021-4.382-4.699-5.539-7.13-6.307c-0.609-0.192-1.505-0.475-1.727-0.475
			c-0.021,0-0.037,0-0.042,0.005c-0.113-3.014,5.793-6.602,13.866-6.9l1.062-0.021c7.697,0,13.176,3.104,13.382,5.603
			c-0.211,0.24-1.192,0.623-1.835,0.881c-2.368,0.941-5.951,2.365-6.643,6.821c-0.627,4.061,2.139,7.765,5.07,11.681
			c2.489,3.325,5.062,6.766,5.189,10.091c0.354,9.866-7.884,17.806-12.366,21.373l-0.161-9.93c1.686-0.438,3.225-1.334,4.433-2.64
			c1.683-1.803,2.553-4.158,2.457-6.621c-0.174-4.978-4.211-8.877-9.537-8.877c0,0-0.01,0-0.016,0
			c-5.075,0.189-9.064,4.472-8.888,9.558c0.164,4.303,3.204,7.786,7.225,8.662l0.158,9.45C88.41,79.787,80.439,72.763,80.099,63.355
			z M90.192,64.964c-0.098-2.706,2.025-4.983,4.917-5.086c2.642,0,4.792,2.075,4.883,4.725c0.053,1.313-0.417,2.565-1.308,3.528
			c-0.728,0.789-1.701,1.221-2.742,1.403c-0.259-0.103-0.433-0.288-0.768-0.304c-0.361,0.006-0.69,0.127-0.994,0.293
			C91.985,69.096,90.279,67.292,90.192,64.964z M7.204,147.403c-0.092-0.639-0.189-1.234-0.166-1.835
			c0.203-5.985,3.483-6.37,7.272-6.813l2.797-0.411c1.065-0.19,2.236-0.411,3.412-0.411c2.015,0,4.084,0.58,5.519,4.824
			c0.195,0.575,0.277,1.171,0.369,1.814c0.334,2.168,0.762,4.988,3.931,8.743c-2.149-0.031-4.168-0.563-6.006-1.582
			c-0.783-0.442-1.743-0.343-2.439,0.232c-0.686,0.564-0.946,1.514-0.648,2.368c1.83,5.246-0.48,8.427-2.721,10.156
			c-0.298-1.883-1.124-3.386-1.891-4.768c-0.793-1.45-1.55-2.815-1.84-4.714c-0.127-0.802-0.693-1.466-1.463-1.72
			c-0.222-0.073-0.448-0.115-0.67-0.115c-0.562,0-1.118,0.221-1.529,0.643c-1.674,1.678-3.531,2.584-5.136,3.102
			C7.935,152.407,7.529,149.597,7.204,147.403z"/>
	</g>
</g>
<g>
</g>
<g>
</g>
<g>
</g>
<g>
</g>
<g>
</g>
<g>
</g>
<g>
</g>
<g>
</g>
<g>
</g>
<g>
</g>
<g>
</g>
<g>
</g>
<g>
</g>
<g>
</g>
<g>
</g>
</svg>
