<?xml version="1.0" encoding="iso-8859-1"?>
<!-- Generator: Adobe Illustrator 17.1.0, SVG Export Plug-In . SVG Version: 6.00 Build 0)  -->
<!DOCTYPE svg PUBLIC "-//W3C//DTD SVG 1.1//EN" "http://www.w3.org/Graphics/SVG/1.1/DTD/svg11.dtd">
<svg version="1.1" id="Capa_1" xmlns="http://www.w3.org/2000/svg" xmlns:xlink="http://www.w3.org/1999/xlink" x="0px" y="0px"
	 viewBox="0 0 204.574 204.574" style="enable-background:new 0 0 204.574 204.574;" xml:space="preserve">
<path d="M162.832,204.574h-32.849c-8.358,0-15.158-6.8-15.158-15.159V95.212c0-1.657,1.343-3,3-3h4.321V36.527c0-1.657,1.343-3,3-3
	h4.706v-7.366c0-8.794,5.106-16.967,13.01-20.823l9.383-4.578c2.326-1.134,5.023-0.992,7.216,0.378
	c2.193,1.371,3.503,3.732,3.503,6.319v26.07h4.705c1.657,0,3,1.343,3,3v55.685h4.322c1.657,0,3,1.343,3,3v94.204
	C177.991,197.774,171.19,204.574,162.832,204.574z M120.825,111.679v77.736c0,5.05,4.108,9.159,9.158,9.159h32.849
	c5.051,0,9.159-4.108,9.159-9.159v-77.736H120.825z M132.567,105.679h39.424v-7.467h-39.424V105.679z M120.825,105.679h5.742v-7.467
	h-5.742V105.679z M128.146,92.212h36.522V39.527h-36.522V92.212z M135.852,33.527h21.111V7.457c0-0.7-0.428-1.071-0.683-1.23
	c-0.253-0.159-0.774-0.38-1.405-0.074l-9.383,4.578c-5.856,2.857-9.641,8.914-9.641,15.431V33.527z M74.59,204.574H41.742
	c-8.358,0-15.158-6.8-15.158-15.159v-77.335c0-1.657,1.343-3,3-3H86.75c1.657,0,3,1.343,3,3v77.335
	C89.75,197.774,82.949,204.574,74.59,204.574z M32.584,130.422v58.994c0,5.05,4.108,9.159,9.158,9.159H74.59
	c5.051,0,9.159-4.108,9.159-9.159v-58.994H32.584z M44.317,124.422H83.75v-9.341H44.317V124.422z M32.584,124.422h5.733v-9.341
	h-5.733V124.422z"/>
<g>
</g>
<g>
</g>
<g>
</g>
<g>
</g>
<g>
</g>
<g>
</g>
<g>
</g>
<g>
</g>
<g>
</g>
<g>
</g>
<g>
</g>
<g>
</g>
<g>
</g>
<g>
</g>
<g>
</g>
</svg>
