<?xml version="1.0" encoding="iso-8859-1"?>
<!-- Generator: Adobe Illustrator 19.1.0, SVG Export Plug-In . SVG Version: 6.00 Build 0)  -->
<svg version="1.1" id="Capa_1" xmlns="http://www.w3.org/2000/svg" xmlns:xlink="http://www.w3.org/1999/xlink" x="0px" y="0px"
	 viewBox="0 0 112 112" style="enable-background:new 0 0 112 112;" xml:space="preserve">
<g>
	<g>
		<g>
			<path d="M85.658,112H26.342c-1.713,0-3.107-1.394-3.107-3.107V3.107C23.235,1.394,24.629,0,26.342,0h59.315
				c1.713,0,3.107,1.394,3.107,3.107v105.785C88.765,110.606,87.371,112,85.658,112z M26.342,2.011
				c-0.604,0-1.096,0.492-1.096,1.096v105.785c0,0.604,0.492,1.096,1.096,1.096h59.315c0.604,0,1.096-0.492,1.096-1.096V3.107
				c0-0.604-0.492-1.096-1.096-1.096H26.342z"/>
		</g>
		<g>
			<path d="M55.988,64.463c-7.306,0-13.25-5.944-13.25-13.25c0-7.306,5.944-13.249,13.25-13.249c7.306,0,13.25,5.944,13.25,13.249
				C69.238,58.519,63.294,64.463,55.988,64.463z M55.988,39.974c-6.197,0-11.239,5.041-11.239,11.238s5.042,11.239,11.239,11.239
				s11.238-5.042,11.238-11.239S62.185,39.974,55.988,39.974z"/>
		</g>
		<g>
			<path d="M55.988,67.748c-9.118,0-16.535-7.418-16.535-16.535c0-9.117,7.418-16.534,16.535-16.534
				c9.117,0,16.535,7.418,16.535,16.534C72.523,60.33,65.106,67.748,55.988,67.748z M55.988,36.689
				c-8.008,0-14.524,6.515-14.524,14.523c0,8.009,6.516,14.524,14.524,14.524s14.523-6.515,14.523-14.524
				C70.512,43.205,63.997,36.689,55.988,36.689z"/>
		</g>
		<g>
			<path d="M56.105,30.384c-5.834,0-10.58-4.746-10.58-10.58s4.746-10.58,10.58-10.58s10.58,4.746,10.58,10.58
				S61.939,30.384,56.105,30.384z M56.105,11.235c-4.725,0-8.569,3.844-8.569,8.569s3.844,8.569,8.569,8.569
				c4.725,0,8.569-3.844,8.569-8.569S60.83,11.235,56.105,11.235z"/>
		</g>
		<g>
			<path d="M56.105,32.953c-7.25,0-13.149-5.898-13.149-13.149S48.855,6.655,56.105,6.655s13.149,5.898,13.149,13.149
				S63.355,32.953,56.105,32.953z M56.105,8.666c-6.141,0-11.137,4.997-11.137,11.138s4.996,11.138,11.137,11.138
				c6.141,0,11.138-4.997,11.138-11.138S62.246,8.666,56.105,8.666z"/>
		</g>
		<g>
			<path d="M30.708,106.246c-0.555,0-1-0.45-1-1.006V90.156c0-0.556,0.445-1.006,1-1.006s1,0.45,1,1.006v15.085
				C31.708,105.796,31.263,106.246,30.708,106.246z"/>
		</g>
		<g>
			<path d="M30.708,82.11c-0.555,0-1-0.45-1-1.006V20.766c0-0.556,0.445-1.006,1-1.006s1,0.45,1,1.006v60.339
				C31.708,81.661,31.263,82.11,30.708,82.11z"/>
		</g>
		<g>
			<path d="M30.708,14.732c-0.555,0-1-0.45-1-1.006v-7.04c0-0.556,0.445-1.006,1-1.006s1,0.45,1,1.006v7.04
				C31.708,14.282,31.263,14.732,30.708,14.732z"/>
		</g>
		<g>
			<path d="M55.755,94.487c-4.417,0-8.011-3.594-8.011-8.012c0-4.417,3.594-8.012,8.011-8.012s8.011,3.594,8.011,8.012
				C63.766,90.892,60.172,94.487,55.755,94.487z M55.755,80.474c-3.309,0-6,2.692-6,6c0,3.309,2.691,6,6,6s6-2.692,6-6
				C61.755,83.166,59.063,80.474,55.755,80.474z"/>
		</g>
		<g>
			<path d="M55.708,86.133c-0.555,0-1-0.45-1-1.006v-5.028c0-0.556,0.445-1.006,1-1.006c0.555,0,1,0.45,1,1.006v5.028
				C56.708,85.683,56.263,86.133,55.708,86.133z"/>
		</g>
		<g>
			<path d="M55.841,78.548c-1.405,0-2.548-1.143-2.548-2.548s1.143-2.548,2.548-2.548c1.405,0,2.548,1.143,2.548,2.548
				S57.246,78.548,55.841,78.548z M55.841,75.463c-0.296,0-0.537,0.241-0.537,0.537s0.241,0.537,0.537,0.537
				c0.296,0,0.537-0.241,0.537-0.537S56.137,75.463,55.841,75.463z"/>
		</g>
		<g>
			<path d="M79.66,105.871c-1.405,0-2.548-1.143-2.548-2.548c0-1.405,1.143-2.548,2.548-2.548c1.405,0,2.548,1.143,2.548,2.548
				C82.208,104.728,81.065,105.871,79.66,105.871z M79.66,102.785c-0.296,0-0.537,0.241-0.537,0.537
				c0,0.297,0.241,0.537,0.537,0.537s0.537-0.241,0.537-0.537C80.197,103.026,79.956,102.785,79.66,102.785z"/>
		</g>
		<g>
			<path d="M72.654,105.871c-1.405,0-2.548-1.143-2.548-2.548c0-1.405,1.143-2.548,2.548-2.548c1.405,0,2.548,1.143,2.548,2.548
				C75.203,104.728,74.06,105.871,72.654,105.871z M72.654,102.785c-0.296,0-0.537,0.241-0.537,0.537
				c0,0.297,0.241,0.537,0.537,0.537c0.296,0,0.537-0.241,0.537-0.537C73.192,103.026,72.95,102.785,72.654,102.785z"/>
		</g>
		<g>
			<path d="M63.547,96.763c-1.405,0-2.548-1.143-2.548-2.548s1.143-2.548,2.548-2.548c1.405,0,2.548,1.143,2.548,2.548
				S64.952,96.763,63.547,96.763z M63.547,93.677c-0.296,0-0.537,0.241-0.537,0.537s0.241,0.537,0.537,0.537
				s0.537-0.241,0.537-0.537S63.843,93.677,63.547,93.677z"/>
		</g>
		<g>
			<path d="M48.134,96.763c-1.405,0-2.548-1.143-2.548-2.548s1.143-2.548,2.548-2.548c1.405,0,2.548,1.143,2.548,2.548
				S49.54,96.763,48.134,96.763z M48.134,93.677c-0.296,0-0.537,0.241-0.537,0.537s0.241,0.537,0.537,0.537s0.537-0.241,0.537-0.537
				S48.43,93.677,48.134,93.677z"/>
		</g>
	</g>
</g>
<g>
</g>
<g>
</g>
<g>
</g>
<g>
</g>
<g>
</g>
<g>
</g>
<g>
</g>
<g>
</g>
<g>
</g>
<g>
</g>
<g>
</g>
<g>
</g>
<g>
</g>
<g>
</g>
<g>
</g>
</svg>
