<?xml version="1.0" encoding="iso-8859-1"?>
<!-- Generator: Adobe Illustrator 18.0.0, SVG Export Plug-In . SVG Version: 6.00 Build 0)  -->
<!DOCTYPE svg PUBLIC "-//W3C//DTD SVG 1.1//EN" "http://www.w3.org/Graphics/SVG/1.1/DTD/svg11.dtd">
<svg version="1.1" id="Capa_1" xmlns="http://www.w3.org/2000/svg" xmlns:xlink="http://www.w3.org/1999/xlink" x="0px" y="0px"
	 viewBox="0 0 476.201 476.201" style="enable-background:new 0 0 476.201 476.201;" xml:space="preserve">
<g>
	<path d="M153.859,236.007c-21.827,0-39.585,17.758-39.585,39.585s17.758,39.585,39.585,39.585s39.585-17.758,39.585-39.585
		S175.686,236.007,153.859,236.007z M153.859,305.177c-16.313,0-29.585-13.272-29.585-29.585s13.272-29.585,29.585-29.585
		s29.585,13.272,29.585,29.585S170.172,305.177,153.859,305.177z"/>
	<path d="M281.534,179.965c4.44,2.193,9.222,3.301,14.034,3.301c3.427,0,6.869-0.562,10.209-1.693
		c8.031-2.719,14.523-8.404,18.279-16.006h0c7.754-15.693,1.295-34.768-14.398-42.522c-15.693-7.753-34.769-1.295-42.522,14.398
		c-3.756,7.602-4.327,16.212-1.607,24.243S273.932,176.208,281.534,179.965z M276.1,141.872c3.786-7.663,11.511-12.11,19.53-12.11
		c3.23,0,6.51,0.723,9.597,2.248c5.207,2.573,9.101,7.02,10.963,12.521s1.472,11.399-1.101,16.606c0,0,0,0,0,0
		c-2.573,5.208-7.02,9.101-12.521,10.964c-5.501,1.863-11.399,1.472-16.606-1.102c-5.208-2.573-9.101-7.02-10.964-12.521
		C273.137,152.977,273.528,147.079,276.1,141.872z"/>
	<path d="M460.936,316.727c-0.911-1.542-22.983-38.1-80.64-67.414c-5.743-2.917-11.464-5.566-17.084-7.922
		c0.038-0.054,0.08-0.104,0.118-0.158c1.194-1.684,2.258-3.47,3.154-5.296c1.829-3.699,3.038-7.605,3.621-11.655
		c6.049-1.031,11.774-3.451,16.745-7.158c4.99-3.717,8.913-8.42,11.659-13.979c5.565-11.263,5.38-24.581-0.492-35.62
		c-0.346-0.653-0.212-1.465,0.336-2.023c13.563-13.817,14.997-35.132,3.408-50.68c-3.702-4.971-8.385-8.881-13.916-11.626
		c0.904-6.096,0.375-12.318-1.625-18.225c-3.346-9.882-10.337-17.867-19.686-22.486c-7.491-3.701-15.78-4.902-23.977-3.473
		c-0.765,0.134-1.518-0.239-1.879-0.932c-8.954-17.17-28.782-25.12-47.143-18.902c-5.902,1.998-11.159,5.351-15.444,9.762
		c-5.525-2.763-11.614-4.199-17.864-4.097c-14.765,0.177-28.003,8.517-34.55,21.766c-1.806,3.656-3.023,7.568-3.619,11.644
		c-0.12,0.835-0.7,1.46-1.478,1.591c-8.122,1.362-15.259,5.115-20.768,10.464c-2.684-9.465-6.298-18.787-10.808-27.82
		C162.484,9.383,123.154,0.464,121.493,0.11c-2.279-0.486-4.593,0.67-5.576,2.784c-0.653,1.406-14.677,32.68,3.758,79.052
		c-22.328-6.874-37.781-3.213-38.528-3.028c-2.263,0.562-3.837,2.613-3.794,4.944c0.024,1.332,0.968,30.75,32.413,59.68
		c-6.586,2.24-12.764,5.993-18.008,11.237c-5.434,5.434-9.386,12.044-11.593,19.306c-7.619-0.158-15.151,1.557-22.009,5.058
		C42.491,187.118,32.76,203,32.76,220.592c0,4.854,0.764,9.67,2.276,14.333c0.465,1.415,0,2.927-1.154,3.76
		c-18.697,13.489-24.658,38.211-14.173,58.781c3.486,6.845,8.56,12.63,14.783,16.969c-2.487,7.175-3.177,14.85-1.976,22.442
		c3.594,22.726,22.879,39.22,45.928,39.22c0.003,0,0.005,0,0.008,0c1.477,0,2.76,0.91,3.196,2.269
		c6.276,19.542,24.132,32.231,44.063,32.23c2.458,0,4.951-0.193,7.455-0.591c7.565-1.197,14.636-4.211,20.69-8.773
		c6.04,4.559,13.11,7.572,20.688,8.773c2.414,0.383,4.882,0.577,7.336,0.577c20.295,0,38.063-12.991,44.212-32.322
		c0.413-1.295,1.653-2.163,3.083-2.163c0.003,0,0.006,0,0.008,0c14.518,0.065,27.585-6.485,36.164-17.048
		c31.974,80.498,77.479,114.738,79.427,116.175c0.873,0.644,1.916,0.977,2.969,0.977c0.607,0,1.217-0.11,1.8-0.335
		c1.595-0.616,2.764-2.003,3.101-3.679c0.4-1.988,8.678-45.174-9.74-110.47c42.076,42.062,78.551,54.487,80.259,55.051
		c0.513,0.17,1.042,0.253,1.569,0.253c1.137,0,2.257-0.388,3.163-1.127c1.324-1.081,2.004-2.763,1.803-4.461
		c-0.233-1.972-5.776-45.327-44.81-99.716c31.018,11.188,54.802,12.767,65.713,12.766c3.898,0,6.156-0.201,6.512-0.235
		c1.702-0.165,3.201-1.187,3.976-2.711C461.864,320.013,461.806,318.199,460.936,316.727z M393.742,120.796
		c8.624,11.57,7.562,27.425-2.523,37.698c-3.618,3.681-4.436,9.193-2.033,13.722c4.367,8.208,4.5,18.115,0.357,26.499
		c-2.04,4.129-4.956,7.625-8.669,10.391c-4.573,3.411-9.993,5.385-15.677,5.709c-9.795,0.576-19.127-3.784-24.98-11.64
		l-10.735-14.395c4.6-4.183,8.43-9.225,11.267-14.967c5.339-10.807,6.425-22.623,3.914-33.544l17.093-5.788
		c10.55-3.573,18.926-11.395,23.284-21.446C388.44,115.001,391.363,117.602,393.742,120.796z M199.914,236.774l16.255-16.255
		c9.662-9.663,14.502-22.924,13.487-36.359c5.357,0.172,10.511,1.486,15.332,3.946c16.147,8.23,23.772,26.674,18.132,43.854
		c-1.816,5.52,0.105,11.49,4.785,14.858c9.484,6.814,15.147,17.895,15.147,29.639c0,5.786-1.339,11.345-3.981,16.524
		c-3.252,6.385-8.256,11.624-14.475,15.151c-10.707,6.083-23.642,6.38-34.604,0.792l-20.409-10.396
		c2.923-7.075,4.546-14.819,4.546-22.937C214.13,260.814,208.774,247.269,199.914,236.774z M204.13,275.592
		c0,27.72-22.551,50.271-50.271,50.271s-50.271-22.551-50.271-50.271s22.551-50.271,50.271-50.271S204.13,247.872,204.13,275.592z
		 M257.216,184.103c-2.358-1.845-4.92-3.496-7.685-4.906c-6.597-3.365-13.684-5.072-21.065-5.072c-0.231,0-0.455,0.016-0.685,0.019
		c-2.207-7.29-6.167-13.922-11.611-19.367c-4.864-4.864-10.617-8.512-16.89-10.803c0.874-0.929,1.789-1.821,2.787-2.633
		c7.579-6.196,17.678-8.156,27.02-5.248l17.162,5.341C243.146,156.655,247.33,172.43,257.216,184.103z M259.408,133.624
		c7.028-14.224,21.367-22.48,36.253-22.48c5.997,0,12.085,1.341,17.815,4.173c19.954,9.859,28.167,34.114,18.308,54.068
		c-4.776,9.666-13.03,16.894-23.242,20.352c-10.212,3.459-21.16,2.732-30.826-2.043
		C257.761,177.833,249.548,153.578,259.408,133.624z M273.744,238.701c-1.119-0.806-1.571-2.259-1.124-3.618
		c4.233-12.892,2.602-26.338-3.647-37.358l1.73-2.444c0.844,0.479,1.702,0.943,2.583,1.378c7.043,3.48,14.632,5.236,22.265,5.236
		c5.438,0,10.897-0.892,16.198-2.687c3.424-1.159,6.664-2.669,9.698-4.475l10.753,14.42c6.682,8.966,16.742,14.52,27.678,15.53
		c-0.497,2.357-1.281,4.644-2.365,6.835c-0.667,1.36-1.454,2.682-2.342,3.934c-8.337,11.777-23.74,15.667-36.644,9.236
		c-4.619-2.284-10.105-1.363-13.669,2.307c-4.51,4.689-10.377,7.659-16.773,8.557C284.766,248.935,279.888,243.115,273.744,238.701z
		 M296.744,48.649c13.662-4.628,28.409,1.286,35.067,14.05c2.38,4.577,7.391,7.053,12.47,6.164
		c6.087-1.062,12.249-0.167,17.824,2.588c6.954,3.436,12.154,9.376,14.644,16.728c1.838,5.428,2.037,11.215,0.576,16.732
		c-2.509,9.455-9.527,16.969-18.775,20.101l-17.071,5.781c-4.628-10.276-12.704-19.07-23.573-24.441
		c-5.785-2.858-11.859-4.484-17.931-5.007l-0.222-17.938c-0.137-11.138-4.986-21.519-13.19-28.763
		C289.491,51.987,292.935,49.938,296.744,48.649z M222.236,89.705c5.08-0.854,8.987-4.888,9.72-10.023
		c0.442-3.021,1.346-5.93,2.688-8.645c4.872-9.858,14.721-16.064,25.71-16.196c5.73-0.064,11.302,1.526,16.102,4.633
		c8.208,5.303,13.179,14.295,13.299,24.055l0.222,17.954c-16.456,1.875-31.668,11.791-39.534,27.711
		c-0.44,0.89-0.843,1.789-1.226,2.692l-17.158-5.34c-10.662-3.322-22.052-1.905-31.479,3.686c-1.617-3.598-2.499-7.501-2.548-11.517
		C197.852,104.287,208.031,92.086,222.236,89.705z M123.557,11.182c10.186,3.708,37.015,16.755,56.501,55.772
		c5.459,10.935,9.51,22.308,12.088,33.83c-2.713,5.431-4.194,11.574-4.113,18.055c0.075,6.226,1.637,12.257,4.505,17.689
		c-0.715,0.729-1.403,1.482-2.058,2.265c-8.457-14.073-19.63-26.503-33.306-37c-7.883-6.047-16.085-11.02-24.402-14.83
		C115.074,49.585,120.517,21.322,123.557,11.182z M92.21,102.488c-2.528-6.063-3.744-11.124-4.327-14.464
		c6.871-0.597,21.313-0.499,39.145,7.308c8.174,3.576,16.269,8.42,24.06,14.396c11.795,9.053,21.573,19.637,29.17,31.539
		c-8.832,0.566-17.203,3.583-24.374,8.83c-1.149,0.841-2.692,0.841-3.846-0.003c-8.945-6.538-19.446-9.468-29.755-8.946
		C104.904,126.989,96.334,112.378,92.21,102.488z M98.83,161.849c12.809-12.809,32.705-14.357,47.304-3.688
		c4.684,3.432,10.977,3.432,15.659,0.002c6.262-4.582,13.701-7.003,21.511-7.003c9.741,0,18.902,3.796,25.795,10.689
		c5.09,5.09,8.534,11.495,9.958,18.521c2.436,12.041-1.287,24.407-9.958,33.078l-16.243,16.243
		c-10.52-8.951-24.134-14.37-38.996-14.37c-8.07,0-15.769,1.606-22.81,4.496l-10.374-20.358
		c-6.207-12.181-17.327-20.884-30.416-24.064C92.06,170.329,94.968,165.711,98.83,161.849z M28.62,292.928
		c-8.23-16.147-3.556-35.548,11.115-46.133c4.702-3.395,6.632-9.418,4.809-14.972c-1.183-3.648-1.783-7.427-1.783-11.231
		c0-13.81,7.638-26.278,19.937-32.54c6.417-3.275,13.574-4.568,20.71-3.741c12.191,1.405,22.792,8.765,28.357,19.688l10.381,20.371
		c-17.126,10.642-28.558,29.618-28.558,51.222c0,1.522,0.076,3.026,0.187,4.521l-22.617,3.585
		c-13.532,2.144-25.258,10.053-32.321,21.55C34.583,301.975,31.096,297.789,28.62,292.928z M131.6,400.13
		c-17.896,2.837-34.899-7.599-40.43-24.819c-1.769-5.514-6.877-9.213-12.766-9.213c-0.011,0-0.022,0-0.034,0
		c-18.025,0-33.156-12.946-35.978-30.782c-1.123-7.101-0.148-14.292,2.819-20.8c5.093-11.19,15.377-19.019,27.511-20.941
		l22.616-3.585c5.34,21.698,22.456,38.803,44.158,44.13l-3.595,22.706c-2.144,13.549,1.764,27.155,10.533,37.427
		C142.009,397.269,136.963,399.28,131.6,400.13z M265.316,335.315c-2.781,17.57-18.235,30.783-35.981,30.783
		c-0.052,0-0.104,0.001-0.158,0c-5.807,0-10.873,3.664-12.615,9.129c-4.824,15.167-18.762,25.356-34.684,25.356
		c-1.931,0-3.872-0.152-5.771-0.454c-7.094-1.124-13.621-4.26-18.878-9.073c-9.093-8.303-13.374-20.515-11.451-32.667l3.596-22.711
		c1.482,0.11,2.974,0.184,4.484,0.184c21.555,0,40.493-11.381,51.148-28.443l20.444,10.414c6.659,3.395,13.887,5.085,21.108,5.085
		c6.034,0,12.06-1.189,17.742-3.542c0.968,3.294,1.468,6.701,1.468,10.184C265.77,331.489,265.618,333.423,265.316,335.315z
		 M344.651,435.157c0.375,11.317-0.11,20.246-0.672,26.259c-13.981-12.85-46.819-47.667-70.655-109.413
		c-0.504-1.299-0.974-2.548-1.428-3.769c1.537-3.555,2.664-7.353,3.296-11.35c0.384-2.405,0.578-4.869,0.578-7.322
		c0-5.188-0.861-10.246-2.543-15.094c6.214-4.345,11.278-10.122,14.753-16.944c3.365-6.597,5.072-13.684,5.072-21.065
		c0-0.659-0.031-1.314-0.059-1.97c11.294,16.886,21.285,36.47,29.766,58.439c1.391,3.592,4.048,11.019,4.081,11.098
		c0.301,0.863,0.598,1.723,0.889,2.579C340.506,384.144,343.995,415.379,344.651,435.157z M418.037,403.841
		c-4.871-2.245-11.664-5.698-19.756-10.67c-15.31-9.408-38.514-26.329-62.423-53.615c-1.199-3.413-2.462-6.851-3.772-10.235
		c-9.674-25.056-21.284-47.174-34.554-65.886c5.447-2.005,10.404-5.215,14.516-9.489c0.512-0.527,2.169-0.237,2.236-0.204
		c17.354,12.171,34.267,28.277,50.286,47.895c0.5,0.608,1,1.225,1.486,1.829C401.581,347.628,414.033,386.945,418.037,403.841z
		 M432.486,313.202c-13.397-1.716-34.516-6.068-59.427-16.976c-0.252-0.31-0.504-0.624-0.754-0.927
		c-11.794-14.444-24.095-27.069-36.726-37.73c7.341-0.769,14.386-3.635,20.266-8.369c6.51,2.597,13.19,5.61,19.92,9.028
		c39.695,20.182,61.921,44.266,71.255,56.171C443.213,314.276,438.309,313.948,432.486,313.202z"/>
</g>
<g>
</g>
<g>
</g>
<g>
</g>
<g>
</g>
<g>
</g>
<g>
</g>
<g>
</g>
<g>
</g>
<g>
</g>
<g>
</g>
<g>
</g>
<g>
</g>
<g>
</g>
<g>
</g>
<g>
</g>
</svg>
